<?xml version="1.0" encoding="UTF-8" standalone="no"?><!DOCTYPE svg PUBLIC "-//W3C//DTD SVG 1.1//EN" "http://www.w3.org/Graphics/SVG/1.1/DTD/svg11.dtd"><svg width="100%" height="100%" viewBox="0 0 16384 8192" version="1.1" xmlns="http://www.w3.org/2000/svg" xmlns:xlink="http://www.w3.org/1999/xlink" xml:space="preserve" xmlns:serif="http://www.serif.com/" style="fill-rule:evenodd;clip-rule:evenodd;stroke-miterlimit:2;"><g id="_2F" serif:id="2F"><path d="M8038.162,5454.315l0,-26.137l-174.362,0l0,280.123l170.387,0" style="fill-opacity:0.7;"/><clipPath id="_clip1"><path d="M8038.162,5454.315l0,-26.137l-174.362,0l0,280.123l170.387,0"/></clipPath><g clip-path="url(#_clip1)"><path d="M7981.99,5653.526l-59.37,0l0,54.776l59.37,0" style="fill:url(#_Linear2);"/><path d="M7908.605,5637.542l-0,-59.37l-44.277,-0l0,59.37" style="fill:url(#_Linear3);"/></g><path d="M8038.162,5454.315l0,-26.137l-174.362,0l0,280.123l170.387,0" style="fill:none;stroke:#f00;stroke-width:6px;"/><path d="M7908.39,5575.76l0,80.75l129.772,0l0,-15.102" style="fill:none;fill-rule:nonzero;stroke:#f00;stroke-width:6px;"/><path d="M8001.457,5581.598l36.704,-0.171l0,75.083l-87.181,-0l0.276,-74.912l29.195,0" style="fill:none;fill-rule:nonzero;stroke:#f00;stroke-width:6px;"/><path d="M8001.457,5545.04l36.704,0l0,40l0.598,-107.49" style="fill:none;fill-rule:nonzero;stroke:#f00;stroke-width:6px;"/><path d="M7981.99,5545.04l-29.685,0l-1.324,-93.819l87.809,0.019" style="fill:none;fill-rule:nonzero;stroke:#f00;stroke-width:6px;"/></g><defs><linearGradient id="_Linear2" x1="0" y1="0" x2="1" y2="0" gradientUnits="userSpaceOnUse" gradientTransform="matrix(59.370146,0.246933,-0.246933,59.370146,7922.619991,5670.025303)"><stop offset="0" style="stop-color:#fff;stop-opacity:1"/><stop offset="1" style="stop-color:#000;stop-opacity:1"/></linearGradient><linearGradient id="_Linear3" x1="0" y1="0" x2="1" y2="0" gradientUnits="userSpaceOnUse" gradientTransform="matrix(-0.246933,59.370146,-59.370146,-0.246933,7902.604777,5578.172213)"><stop offset="0" style="stop-color:#fff;stop-opacity:1"/><stop offset="1" style="stop-color:#000;stop-opacity:1"/></linearGradient></defs></svg>