<?xml version="1.0" encoding="UTF-8" standalone="no"?><!DOCTYPE svg PUBLIC "-//W3C//DTD SVG 1.1//EN" "http://www.w3.org/Graphics/SVG/1.1/DTD/svg11.dtd"><svg width="100%" height="100%" viewBox="0 0 16384 8192" version="1.1" xmlns="http://www.w3.org/2000/svg" xmlns:xlink="http://www.w3.org/1999/xlink" xml:space="preserve" xmlns:serif="http://www.serif.com/" style="fill-rule:evenodd;clip-rule:evenodd;stroke-miterlimit:2;"><g id="_1F" serif:id="1F"><g><path d="M7863.8,5428.179l648.57,0l0,280.041l-209.01,0l0.152,-23.32l-49.362,0l0,-7.74l-177.252,0l-38.108,31.06l-174.99,-0l0,-280.041" style="fill-opacity:0.7;fill-rule:nonzero;"/><path d="M7981.99,5653.526l-59.37,0l0,54.776l59.37,0" style="fill:url(#_Linear1);"/><path d="M7908.605,5637.542l-0,-59.37l-44.277,-0l0,59.37" style="fill:url(#_Linear2);"/><path d="M8038.79,5606.48l-0,-178.301l-174.99,-0l0,19.501" style="fill:none;fill-rule:nonzero;stroke:#f00;stroke-width:6px;"/><path d="M7863.8,5505.893l0,71.684l44.805,0l0,76.135l129.556,0l0,-19.632" style="fill:none;fill-rule:nonzero;stroke:#f00;stroke-width:6px;"/><path d="M8512.37,5599.632l0,108.589l-62.79,0l0,-57.03l-19.933,0l0,57.03l0,-134.949" style="fill:none;fill-rule:nonzero;stroke:#f00;stroke-width:6px;"/><path d="M8429.647,5474.3l24.283,0l0,-46.121l58.44,0l0,112.649" style="fill:none;fill-rule:nonzero;stroke:#f00;stroke-width:6px;"/><rect x="8429.647" y="5428.179" width="24.283" height="46.121" style="fill:#f00;fill-opacity:0.4;stroke:#f00;stroke-width:6px;"/><rect x="8429.647" y="5651.19" width="19.933" height="57.03" style="fill:#f00;fill-opacity:0.4;stroke:#f00;stroke-width:6px;"/><path d="M8487.45,5568.199l-22.81,0l0,-61.127l0,115.729" style="fill:none;fill-rule:nonzero;stroke:#f00;stroke-width:6px;"/><path d="M8402.6,5634.08l-99.06,0l-0.18,50.82" style="fill:none;fill-rule:nonzero;stroke:#f00;stroke-width:6px;"/><path d="M7863.8,5577.577l0,130.643l173.139,0l40.447,-31.06l45.524,0" style="fill:none;fill-rule:nonzero;stroke:#f00;stroke-width:6px;"/><path d="M8212.48,5677.19l-62.74,0.03" style="fill:none;fill-rule:nonzero;stroke:#f00;stroke-width:6px;"/><path d="M8238.676,5677.16l15.474,0l0,7.74l49.362,0l-0.152,23.32l146.22,0" style="fill:none;fill-rule:nonzero;stroke:#f00;stroke-width:6px;"/><path d="M8154.033,5428.179l-115.243,0" style="fill:none;fill-rule:nonzero;stroke:#f00;stroke-width:6px;"/><path d="M8215.331,5428.179l135.708,0" style="fill:none;fill-rule:nonzero;stroke:#f00;stroke-width:6px;"/><path d="M8396.297,5428.179l33.35,0l0,98.742" style="fill:none;fill-rule:nonzero;stroke:#f00;stroke-width:6px;"/></g><path d="M8552.128,5403.45l72.997,0l0,39.045l-112.755,0l0,-39.045l13.55,0" style="fill-opacity:0.7;fill-rule:nonzero;stroke:#f00;stroke-width:6px;"/><g><path d="M7472.15,5205.204l0,129.363l-6.363,6.864l-222.61,-224.522l10.517,-12.578l121.386,4.904l97.07,95.969Z" style="fill-opacity:0.7;"/><path d="M7391.495,5125.67l-16.415,-16.434l-121.386,-4.904l-10.517,12.578l222.61,224.522l6.363,-6.864l0,-17.316" style="fill:none;fill-rule:nonzero;stroke:#f00;stroke-width:6px;"/><path d="M7472.15,5284.26l0,-79.056l-54.315,-55.799" style="fill:none;fill-rule:nonzero;stroke:#f00;stroke-width:6px;"/><path d="M7364.819,5239.596l36.969,-36.272" style="fill:none;fill-rule:nonzero;stroke:#f00;stroke-width:6px;"/></g><g><path d="M9924.083,2527.221l85.675,84.529l-79.388,81.106l76.184,78.812l42.138,-39.806l73.779,74.361l-112.714,106.889l-204.926,-215.445l67.539,-61.556l-27.927,-27.611l79.639,-81.279Z" style="fill-opacity:0.7;"/><path d="M10097.299,2780.85l25.174,25.372l-77.019,73.039" style="fill:none;fill-rule:nonzero;stroke:#f00;stroke-width:6px;"/><path d="M10027.108,2896.659l-17.349,16.452l-204.926,-215.445l12.575,-11.461" style="fill:none;fill-rule:nonzero;stroke:#f00;stroke-width:6px;"/><path d="M9856.153,2650.892l16.218,-14.781" style="fill:none;fill-rule:nonzero;stroke:#f00;stroke-width:6px;"/><path d="M9908.833,2670.334l50.318,52.295" style="fill:none;fill-rule:nonzero;stroke:#f00;stroke-width:6px;"/><path d="M9980.263,2744.468l26.293,27.199l42.138,-39.806l25.259,25.458" style="fill:none;fill-rule:nonzero;stroke:#f00;stroke-width:6px;"/><path d="M9930.371,2692.856l79.388,-81.106l-85.675,-84.529l-79.639,81.279l44.306,43.806" style="fill:none;fill-rule:nonzero;stroke:#f00;stroke-width:6px;"/></g><g><path d="M9963.653,2151.778l-56.009,63.178l-138.445,-129.445l61.156,-64.223l133.297,130.49Z" style="fill-opacity:0.7;"/><path d="M9853.177,2164.03l54.467,50.926l56.009,-63.178l-133.297,-130.49l-20.691,21.729" style="fill:none;fill-rule:nonzero;stroke:#f00;stroke-width:6px;"/><path d="M9788.283,2065.471l-19.084,20.041l66.613,62.282" style="fill:none;fill-rule:nonzero;stroke:#f00;stroke-width:6px;"/></g><g><path d="M10983,4505.489l0,72.921l185.481,0l0,-187.196l-185.481,0l0,78.631" style="fill-opacity:0.7;fill-rule:nonzero;"/><clipPath id="_clip3"><path d="M10983,4505.489l0,72.921l185.481,0l0,-187.196l-185.481,0l0,78.631" clip-rule="nonzero"/></clipPath><g clip-path="url(#_clip3)"><path d="M11075.74,4578.41l59.37,-0l0,-40.121l-59.37,0" style="fill:url(#_Linear4);"/></g><path d="M10983,4505.489l0,72.921l185.481,0l0,-187.196l-185.481,0l0,78.631" style="fill:none;fill-rule:nonzero;stroke:#f00;stroke-width:6px;"/><path d="M10953.867,4391.214l113.09,-0l0,-25.77l-113.09,0" style="fill:url(#_Linear5);"/><path d="M10953.867,4365.444l113.09,0l-0,25.77l-113.09,0" style="fill:none;fill-rule:nonzero;stroke:#f00;stroke-width:6px;"/><path d="M11168.481,4538.289l-92.74,0" style="fill:none;fill-rule:nonzero;stroke:#f00;stroke-width:6px;"/></g><path d="M10699,4869.623l0,54.377l-132.6,0l0,-95.682l132.6,0l0,9.823" style="fill-opacity:0.7;fill-rule:nonzero;stroke:#f00;stroke-width:6px;"/><g><rect x="7156.164" y="1149.779" width="226.724" height="159.888" style="fill-opacity:0.7;"/><path d="M7382.888,1183.389l0,126.278l-174.331,0" style="fill:none;fill-rule:nonzero;stroke:#f00;stroke-width:6px;"/><path d="M7176.5,1309.667l-20.336,0l0,-159.888l226.724,0l0,10.86" style="fill:none;fill-rule:nonzero;stroke:#f00;stroke-width:6px;"/></g><path d="M5978.579,4163.641l0,-54.981l44.666,0l0,101.752l-44.666,0l0,-22.585" style="fill-opacity:0.7;fill-rule:nonzero;stroke:#f00;stroke-width:6px;"/><path d="M5978.579,4265.393l0,-54.981l44.666,0l0,101.752l-44.666,0l0,-22.585" style="fill-opacity:0.7;fill-rule:nonzero;stroke:#f00;stroke-width:6px;"/><path d="M5919.941,4656.766l0,-54.981l44.666,0l0,101.752l-44.666,0l0,-22.585" style="fill-opacity:0.7;fill-rule:nonzero;stroke:#f00;stroke-width:6px;"/><path d="M5919.941,4758.517l0,-54.981l44.666,0l0,101.752l-44.666,0l0,-22.585" style="fill-opacity:0.7;fill-rule:nonzero;stroke:#f00;stroke-width:6px;"/></g><defs><linearGradient id="_Linear1" x1="0" y1="0" x2="1" y2="0" gradientUnits="userSpaceOnUse" gradientTransform="matrix(59.370146,0.246933,-0.246933,59.370146,7922.619991,5670.025303)"><stop offset="0" style="stop-color:#fff;stop-opacity:1"/><stop offset="1" style="stop-color:#000;stop-opacity:1"/></linearGradient><linearGradient id="_Linear2" x1="0" y1="0" x2="1" y2="0" gradientUnits="userSpaceOnUse" gradientTransform="matrix(-0.246933,59.370146,-59.370146,-0.246933,7902.604777,5578.172213)"><stop offset="0" style="stop-color:#fff;stop-opacity:1"/><stop offset="1" style="stop-color:#000;stop-opacity:1"/></linearGradient><linearGradient id="_Linear4" x1="0" y1="0" x2="1" y2="0" gradientUnits="userSpaceOnUse" gradientTransform="matrix(-59.370146,-0.246933,0.246933,-59.370146,11135.110533,4561.910386)"><stop offset="0" style="stop-color:#fff;stop-opacity:1"/><stop offset="1" style="stop-color:#000;stop-opacity:1"/></linearGradient><linearGradient id="_Linear5" x1="0" y1="0" x2="1" y2="0" gradientUnits="userSpaceOnUse" gradientTransform="matrix(-113.090196,1.912589,-1.912589,-113.090196,11066.956916,4376.416136)"><stop offset="0" style="stop-color:#fff;stop-opacity:1"/><stop offset="1" style="stop-color:#000;stop-opacity:1"/></linearGradient></defs></svg>